<svg width="300" height="300" viewBox="0 0 300 300" fill="none" xmlns="http://www.w3.org/2000/svg">
<path d="M68.1087 104.894L56.7374 112.086L175.163 286.218L186.535 279.025L68.1087 104.894Z" fill="#E6E6E6"/>
<path d="M41.0367 39.3631L67.3463 78.0482C67.8557 78.7973 68.0358 79.711 67.8467 80.5881C67.6577 81.4653 67.1151 82.2341 66.3383 82.7255C65.5615 83.2168 64.6141 83.3904 63.7046 83.2081C62.795 83.0259 61.9978 82.5026 61.4883 81.7534L31.2424 37.2802C27.1369 36.9496 23.0104 37.6032 19.2303 39.1828L52.1845 87.6382C52.6937 88.3873 52.8734 89.3008 52.6843 90.1778C52.4952 91.0547 51.9526 91.8234 51.176 92.3146C50.3993 92.8058 49.4522 92.9795 48.5428 92.7974C47.6334 92.6153 46.8362 92.0923 46.3266 91.3434L13.3723 42.888C10.3639 45.6023 8.09813 48.9919 6.77684 52.755L37.0228 97.2282C37.5319 97.9774 37.7117 98.8908 37.5226 99.7678C37.3335 100.645 36.7909 101.413 36.0143 101.905C35.2376 102.396 34.2904 102.57 33.381 102.387C32.4716 102.205 31.6745 101.682 31.1648 100.933L4.85534 62.2483C4.1796 73.0347 7.82626 85.8194 15.8182 97.5707C30.6716 119.411 54.9005 129.407 69.9349 119.897C84.9693 110.388 85.116 84.974 70.2627 63.1338C62.2707 51.3825 51.5646 43.0631 41.0367 39.3631Z" fill="#E6E6E6"/>
<path d="M119.093 81.0719H105.495V289.315H119.093V81.0719Z" fill="#E6E6E6"/>
<path d="M112.088 94.5839C130.068 94.5839 144.643 73.4106 144.643 47.292C144.643 21.1733 130.068 0 112.088 0C94.1083 0 79.533 21.1733 79.533 47.292C79.533 73.4106 94.1083 94.5839 112.088 94.5839Z" fill="#E6E6E6"/>
<path d="M112.088 86.203C126.881 86.203 138.874 68.7819 138.874 47.2919C138.874 25.8019 126.881 8.38084 112.088 8.38084C97.2946 8.38084 85.3022 25.8019 85.3022 47.2919C85.3022 68.7819 97.2946 86.203 112.088 86.203Z" fill="#CCCCCC"/>
<path d="M150 300C232.843 300 300 296.284 300 291.7C300 287.116 232.843 283.4 150 283.4C67.1573 283.4 0 287.116 0 291.7C0 296.284 67.1573 300 150 300Z" fill="#E6E6E6"/>
<path d="M238.709 291.578C182.495 281.806 124.922 281.806 68.7083 291.578C67.8154 291.734 66.8978 291.699 66.0203 291.476C65.1429 291.253 64.3269 290.846 63.6301 290.286C62.9332 289.725 62.3724 289.024 61.9873 288.231C61.6021 287.439 61.402 286.575 61.4011 285.699V211.423H246.016V285.699C246.016 286.575 245.815 287.439 245.43 288.231C245.045 289.024 244.484 289.725 243.787 290.286C243.091 290.846 242.275 291.253 241.397 291.476C240.52 291.699 239.602 291.734 238.709 291.578V291.578Z" fill="#353535"/>
<path d="M229.121 156.58C224.858 156.576 220.625 157.26 216.595 158.601C210.718 146.308 201.327 135.887 189.525 128.56C177.722 121.234 163.997 117.306 149.961 117.237C135.924 117.169 122.159 120.963 110.28 128.174C98.401 135.386 88.9014 145.715 82.8959 157.95C76.9824 156.35 70.7568 156.144 64.7436 157.35C58.7304 158.555 53.1056 161.137 48.3432 164.877C43.5807 168.617 39.82 173.406 37.3779 178.841C34.9358 184.275 33.8838 190.197 34.3105 196.105C34.7372 202.014 36.6301 207.737 39.8297 212.793C43.0294 217.849 47.4421 222.089 52.6962 225.156C57.9502 228.224 63.8917 230.028 70.0201 230.418C76.1486 230.808 82.2845 229.772 87.9109 227.398C94.6735 237.335 103.91 245.481 114.777 251.09C125.644 256.699 137.796 259.593 150.121 259.508C162.446 259.422 174.553 256.36 185.336 250.601C196.118 244.841 205.232 236.568 211.846 226.538C217.013 229.053 222.703 230.408 228.49 230.499C234.278 230.59 240.011 229.417 245.261 227.066C250.51 224.715 255.14 221.247 258.801 216.924C262.463 212.601 265.062 207.535 266.402 202.105C267.743 196.675 267.791 191.022 266.543 185.572C265.295 180.121 262.783 175.014 259.196 170.634C255.609 166.253 251.039 162.713 245.83 160.279C240.622 157.845 234.909 156.58 229.121 156.58V156.58Z" fill="#353535"/>
<path d="M76.2363 188.373H75.4121C75.384 177.791 77.8124 167.337 82.5194 157.778L83.2643 158.118C78.6097 167.571 76.2083 177.909 76.2363 188.373V188.373Z" fill="#3F3D56"/>
<path d="M223.764 188.373H222.94C222.965 178.15 220.673 168.045 216.225 158.765L216.974 158.432C221.472 167.816 223.79 178.035 223.764 188.373V188.373Z" fill="#3F3D56"/>
<path d="M61.5005 245.986L61.3017 245.214C61.5343 245.159 84.9569 239.611 119.283 236.858C150.964 234.318 198.686 233.705 246.117 245.215L245.916 245.986C198.601 234.505 150.984 235.115 119.368 237.649C85.104 240.396 61.7325 245.931 61.5005 245.986Z" fill="#3F3D56"/>
<path d="M61.5005 256.716L61.3017 255.945C61.5343 255.889 84.9569 250.341 119.283 247.588C150.964 245.048 198.686 244.435 246.117 255.945L245.916 256.716C198.601 245.235 150.984 245.846 119.368 248.379C85.104 251.126 61.7325 256.661 61.5005 256.716Z" fill="#3F3D56"/>
<path d="M61.5005 267.446L61.3017 266.675C61.5343 266.619 84.9569 261.071 119.283 258.319C150.964 255.778 198.686 255.165 246.117 266.675L245.916 267.446C198.601 255.965 150.984 256.576 119.368 259.11C85.104 261.856 61.7325 267.391 61.5005 267.446Z" fill="#3F3D56"/>
<path d="M39.5134 289.36C30.5166 294.787 21.5197 294.784 12.5228 289.353C12.238 289.184 12.0067 288.943 11.8541 288.656C11.7014 288.369 11.6332 288.047 11.6569 287.725L14.4642 252.53H37.1705L40.3777 287.713C40.4054 288.038 40.3393 288.363 40.1868 288.654C40.0342 288.945 39.8011 289.189 39.5134 289.36V289.36Z" fill="#3F3D56"/>
<path d="M25.7126 256.909C32.0406 256.909 37.1705 255.127 37.1705 252.928C37.1705 250.729 32.0406 248.947 25.7126 248.947C19.3846 248.947 14.2548 250.729 14.2548 252.928C14.2548 255.127 19.3846 256.909 25.7126 256.909Z" fill="#3F3D56"/>
<path d="M34.6934 251.584C28.723 255.634 22.9432 255.634 17.3541 251.584V245.214H34.6934V251.584Z" fill="#353535"/>
<path d="M26.0238 248.399C30.8119 248.399 34.6934 246.973 34.6934 245.214C34.6934 243.455 30.8119 242.029 26.0238 242.029C21.2357 242.029 17.3541 243.455 17.3541 245.214C17.3541 246.973 21.2357 248.399 26.0238 248.399Z" fill="#353535"/>
<path d="M26.4366 245.214C26.8926 245.214 27.2623 245.036 27.2623 244.816C27.2623 244.596 26.8926 244.418 26.4366 244.418C25.9806 244.418 25.6109 244.596 25.6109 244.816C25.6109 245.036 25.9806 245.214 26.4366 245.214Z" fill="#E6E6E6"/>
<path d="M30.3354 245.214C30.7914 245.214 31.1611 245.036 31.1611 244.816C31.1611 244.596 30.7914 244.418 30.3354 244.418C29.8794 244.418 29.5098 244.596 29.5098 244.816C29.5098 245.036 29.8794 245.214 30.3354 245.214Z" fill="#E6E6E6"/>
<path d="M28.386 246.154C28.842 246.154 29.2117 245.976 29.2117 245.756C29.2117 245.536 28.842 245.358 28.386 245.358C27.93 245.358 27.5603 245.536 27.5603 245.756C27.5603 245.976 27.93 246.154 28.386 246.154Z" fill="#E6E6E6"/>
<path d="M20.5884 246.154C21.0444 246.154 21.4141 245.976 21.4141 245.756C21.4141 245.536 21.0444 245.358 20.5884 245.358C20.1324 245.358 19.7627 245.536 19.7627 245.756C19.7627 245.976 20.1324 246.154 20.5884 246.154Z" fill="#E6E6E6"/>
<path d="M22.5378 245.214C22.9938 245.214 23.3635 245.036 23.3635 244.816C23.3635 244.596 22.9938 244.418 22.5378 244.418C22.0818 244.418 21.7121 244.596 21.7121 244.816C21.7121 245.036 22.0818 245.214 22.5378 245.214Z" fill="#E6E6E6"/>
<path d="M24.4872 246.624C24.9432 246.624 25.3129 246.446 25.3129 246.226C25.3129 246.006 24.9432 245.828 24.4872 245.828C24.0312 245.828 23.6615 246.006 23.6615 246.226C23.6615 246.446 24.0312 246.624 24.4872 246.624Z" fill="#E6E6E6"/>
<path d="M288.827 289.36C279.83 294.787 270.833 294.784 261.836 289.353C261.551 289.184 261.32 288.943 261.167 288.656C261.015 288.369 260.946 288.047 260.97 287.725L263.777 252.53H286.484L289.691 287.713C289.719 288.038 289.652 288.363 289.5 288.654C289.347 288.945 289.114 289.189 288.827 289.36V289.36Z" fill="#3F3D56"/>
<path d="M275.026 256.909C281.354 256.909 286.484 255.127 286.484 252.928C286.484 250.729 281.354 248.947 275.026 248.947C268.698 248.947 263.568 250.729 263.568 252.928C263.568 255.127 268.698 256.909 275.026 256.909Z" fill="#3F3D56"/>
<path d="M284.007 251.584C278.036 255.634 272.256 255.634 266.667 251.584V245.214H284.007V251.584Z" fill="#353535"/>
<path d="M275.337 248.399C280.125 248.399 284.007 246.973 284.007 245.214C284.007 243.455 280.125 242.029 275.337 242.029C270.549 242.029 266.667 243.455 266.667 245.214C266.667 246.973 270.549 248.399 275.337 248.399Z" fill="#353535"/>
<path d="M275.75 245.214C276.206 245.214 276.575 245.036 276.575 244.816C276.575 244.596 276.206 244.418 275.75 244.418C275.294 244.418 274.924 244.596 274.924 244.816C274.924 245.036 275.294 245.214 275.75 245.214Z" fill="#E6E6E6"/>
<path d="M279.649 245.214C280.105 245.214 280.474 245.036 280.474 244.816C280.474 244.596 280.105 244.418 279.649 244.418C279.193 244.418 278.823 244.596 278.823 244.816C278.823 245.036 279.193 245.214 279.649 245.214Z" fill="#E6E6E6"/>
<path d="M277.699 246.154C278.155 246.154 278.525 245.976 278.525 245.756C278.525 245.536 278.155 245.358 277.699 245.358C277.243 245.358 276.874 245.536 276.874 245.756C276.874 245.976 277.243 246.154 277.699 246.154Z" fill="#E6E6E6"/>
<path d="M269.902 246.154C270.358 246.154 270.727 245.976 270.727 245.756C270.727 245.536 270.358 245.358 269.902 245.358C269.446 245.358 269.076 245.536 269.076 245.756C269.076 245.976 269.446 246.154 269.902 246.154Z" fill="#E6E6E6"/>
<path d="M271.851 245.214C272.307 245.214 272.677 245.036 272.677 244.816C272.677 244.596 272.307 244.418 271.851 244.418C271.395 244.418 271.025 244.596 271.025 244.816C271.025 245.036 271.395 245.214 271.851 245.214Z" fill="#E6E6E6"/>
<path d="M273.8 246.624C274.256 246.624 274.626 246.446 274.626 246.226C274.626 246.006 274.256 245.828 273.8 245.828C273.344 245.828 272.975 246.006 272.975 246.226C272.975 246.446 273.344 246.624 273.8 246.624Z" fill="#E6E6E6"/>
</svg>
